<?xml version="1.0" encoding="UTF-8"?>
<svg width="231px" height="49px" viewBox="0 0 231 49" version="1.1" xmlns="http://www.w3.org/2000/svg" xmlns:xlink="http://www.w3.org/1999/xlink">
    <title>ONWARD! Copy</title>
    <g id="Page-1" stroke="none" stroke-width="1" fill="none" fill-rule="evenodd">
        <g id="Extra-Large" transform="translate(-36.000000, -24.000000)" fill="#FFFFFF" fill-rule="nonzero">
            <g id="ONWARD!-Copy" transform="translate(36.000000, 24.000000)">
                <path d="M36.3596378,35.7748756 C36.3596378,35.6529851 36.4204398,35.5310945 36.4812419,35.5310945 C37.1500647,35.5310945 37.5148771,36.8718905 37.5148771,36.6890547 C37.5148771,36.9328358 37.2108668,37.1156716 36.6636481,37.1156716 C36.3596378,37.1156716 36.2380336,36.9328358 36.2380336,36.6890547 C36.2380336,36.4452736 36.3596378,36.079602 36.3596378,35.7748756 Z M16.1733506,45.4651741 C16.4773609,45.4651741 17.5109961,45.7089552 17.5109961,46.0136816 C17.5109961,46.2574627 16.7205692,46.3793532 16.3557568,46.3793532 C15.8693402,46.3793532 15.7477361,46.1965174 15.7477361,45.891791 C15.7477361,45.7089552 15.9301423,45.4651741 16.1733506,45.4651741 Z M0.972833118,16.8818408 C0.851228978,17.3084577 0.912031048,18.8320896 0.912031048,19.3196517 C0.912031048,20.2338308 1.39844761,20.9651741 1.39844761,21.14801 C1.39844761,21.391791 0,21.0261194 0,23.5858209 C0,25.9017413 0.304010349,27.9738806 0.304010349,28.3395522 C0.304010349,28.5833333 1.58085382,28.8880597 1.52005175,28.8880597 C1.39844761,28.8880597 0.851228978,30.0460199 0.790426908,29.9850746 C0.790426908,31.5087065 0.972833118,33.0932836 1.64165589,33.7636816 C1.94566624,33.9465174 3.2225097,33.8246269 3.2225097,34.1293532 C3.2225097,34.5559701 2.24967658,35.1654229 2.24967658,35.5920398 C2.24967658,36.75 3.64812419,39.1268657 4.25614489,39.9191542 C4.98576973,40.8333333 6.74902975,41.5646766 6.74902975,42.1741294 C6.74902975,42.7835821 7.11384217,42.7835821 7.29624838,42.7835821 C7.47865459,42.7835821 8.39068564,42.7835821 8.39068564,43.0883085 C8.39068564,43.2711443 8.2690815,43.4539801 8.2690815,43.5758706 C8.2690815,44.3681592 11.7347995,46.1355721 12.4036223,46.1355721 C12.9508409,46.1355721 14.3492885,47.3544776 15.8693402,47.4763682 C17.5717982,47.5982587 17.450194,48.3905473 19.4566624,48.5733831 C20.4902975,48.9390547 21.0983182,49 22.0103493,49 C22.7399741,49 23.6520052,48.9390547 25.0504528,48.9390547 C29.3673997,48.9390547 33.7451488,47.4154229 35.5084088,46.5621891 C36.2380336,46.3793532 37.6364812,45.0385572 38.7309185,44.3072139 C40.007762,43.5149254 42.1966365,41.9912935 42.1966365,40.6504975 C42.1966365,40.5895522 42.1358344,40.4676617 42.1358344,40.2848259 C42.1358344,39.7363184 43.0478655,39.0659204 43.7166882,38.3955224 C44.6287193,37.4813433 45.23674,34.8606965 45.23674,33.7027363 C45.23674,33.0932836 44.7503234,33.0323383 44.7503234,32.2400498 C44.7503234,31.8134328 45.5407503,31.8743781 45.9055627,31.4477612 C46.5135834,30.7164179 46.8783959,30.289801 46.8783959,28.6442786 C46.8783959,27.608209 45.9663648,28.0957711 45.7839586,27.7300995 C45.7839586,27.7300995 46.6351876,27.1206468 46.6351876,26.6330846 C46.6351876,26.5721393 46.6351876,26.4502488 46.5743855,26.3893035 C46.148771,25.9626866 45.6623545,26.0236318 45.1759379,24.7437811 C45.1151358,24.6218905 45.1151358,24.5 45.1151358,24.4390547 C45.1151358,24.3171642 46.2703752,25.2313433 46.6959897,25.2313433 C46.7567917,25.2313433 46.8783959,25.2313433 46.8783959,25.170398 C46.9391979,24.9875622 47,24.8047264 47,24.6828358 C47,24.3781095 46.8175938,24.1952736 46.6351876,23.7077114 C46.3919793,22.9763682 46.7567917,22.9154229 45.6623545,22.3059701 C45.4799483,22.1840796 45.3583441,22.0621891 45.3583441,22.0012438 C45.3583441,21.6355721 46.9391979,21.391791 46.9391979,20.9042289 C46.9391979,19.9291045 46.6351876,19.1977612 46.2703752,17.9788557 C46.2703752,17.6131841 44.6895213,13.1641791 44.385511,12.7375622 C42.7438551,10.3606965 42.0750323,10.6654229 41.5886158,9.62935323 C41.1021992,8.59328358 40.8589909,8.53233831 40.068564,7.74004975 C39.156533,6.82587065 38.4877102,5.48507463 36.542044,5.48507463 C36.1772316,5.48507463 35.9340233,6.27736318 35.7516171,6.27736318 C35.3868047,6.27736318 34.9611902,4.87562189 34.9611902,4.81467662 C34.9611902,4.57089552 33.0155239,3.35199005 29.4890039,3.35199005 C26.7529107,3.35199005 24.5032342,4.93656716 23.7736093,4.93656716 C23.1655886,4.93656716 22.8615783,5.60696517 22.3751617,5.60696517 C21.7063389,5.60696517 19.9430789,6.52114428 19.9430789,7.31343284 C19.9430789,7.80099502 20.6727038,8.28855721 20.915912,8.28855721 C21.3415265,8.28855721 21.8279431,8.22761194 22.5575679,7.8619403 C23.7128072,7.25248756 24.9896507,7.25248756 26.3880983,7.25248756 L26.7529107,7.25248756 C26.996119,7.25248756 28.0297542,7.13059701 28.2121604,7.13059701 C28.6377749,7.13059701 29.549806,7.37437811 29.549806,7.74004975 C29.549806,7.98383085 30.461837,8.41044776 30.461837,8.59328358 C30.461837,9.38557214 32.1034929,8.65422886 32.5291074,9.99502488 C33.1979301,11.7624378 35.3260026,13.2860697 35.3260026,13.7736318 C35.3260026,14.5659204 36.7852523,17.7350746 36.7852523,18.4054726 C36.7852523,18.7711443 36.6028461,20.050995 36.6028461,20.4166667 C36.6028461,20.721393 37.8796895,21.0261194 37.8796895,21.14801 C37.8188875,21.2089552 36.9068564,21.8793532 36.9068564,22.2450249 C36.9068564,22.2450249 37.3324709,22.9763682 37.3324709,23.3420398 C37.3324709,23.4639303 37.3324709,23.5858209 37.2716688,23.7686567 C37.1500647,24.3171642 36.7244502,24.2562189 36.7244502,24.8047264 C36.7244502,24.9266169 36.7852523,25.170398 36.8460543,25.4141791 C37.2108668,26.5721393 37.1500647,27.85199 37.2108668,27.85199 C37.2716688,27.85199 36.542044,29.3146766 36.542044,29.9241294 C36.542044,30.289801 36.6028461,30.6554726 36.6028461,31.1430348 C36.6028461,33.7636816 34.778784,35.7139303 34.778784,37.1766169 C34.778784,38.6393035 35.0219922,38.8221393 35.0219922,39.431592 C35.0219922,39.6753731 33.5627426,40.3457711 33.1371281,40.7114428 C32.4683053,41.1380597 32.8331177,41.6865672 31.8602846,42.4788557 C30.7050453,43.3320896 30.0362225,44.1853234 28.8201811,44.6728856 C27.5433376,45.1604478 27.3001294,45.64801 26.7529107,45.64801 L24.5640362,45.891791 C24.0168176,45.891791 22.5575679,45.891791 22.2535576,45.891791 C20.915912,45.891791 21.2199224,45.891791 19.6998706,45.0385572 C19.5782665,44.9776119 19.5174644,44.9776119 19.3350582,44.9776119 C18.6054334,44.9776119 17.6934023,43.7587065 17.1461837,43.4539801 C15.2005175,42.2350746 13.9844761,41.4427861 13.9844761,41.4427861 C13.9844761,41.2599502 14.2884864,41.0771144 14.2884864,40.8942786 C14.2884864,40.4676617 13.9844761,39.3706468 13.1940492,38.0298507 C12.6468305,37.1156716 12.2820181,37.4813433 12.2820181,35.7139303 C12.2820181,34.5559701 12.0996119,34.068408 11.4915912,34.068408 C11.2483829,34.068408 9.4851229,34.6169154 8.69469599,34.6169154 C8.51228978,34.6169154 8.45148771,34.5559701 8.45148771,34.2512438 C8.45148771,33.1542289 9.30271669,33.7636816 10.0323415,33.0932836 C11.4307891,32.1181592 11.5523933,31.5696517 11.5523933,31.2649254 C11.5523933,31.2039801 11.309185,30.4726368 10.7619664,30.4726368 C10.457956,30.4726368 10.1539457,30.5945274 9.78913325,30.5945274 C9.54592497,30.5945274 9.4851229,30.5335821 9.4851229,30.4726368 C9.4851229,30.1679104 9.84993532,29.5584577 10.3363519,29.1318408 C10.457956,29.0708955 10.457956,28.949005 10.457956,28.8271144 C10.457956,28.4004975 10.1539457,27.7910448 10.2147477,27.85199 C10.2755498,27.9129353 10.0931436,26.1455224 10.1539457,25.4751244 L10.2147477,23.8905473 C10.2147477,23.6467662 10.1539457,23.2810945 10.0323415,22.9154229 C9.97153946,22.7935323 9.97153946,22.6716418 9.97153946,22.5497512 C9.97153946,21.9402985 10.7619664,21.818408 10.7619664,20.9651741 C10.7619664,19.9900498 11.5523933,18.2835821 11.6739974,17.369403 C11.7347995,16.3942786 12.221216,15.5410448 12.221216,15.1753731 C12.221216,14.4440299 12.0996119,14.4440299 11.3699871,14.4440299 C11.2483829,14.4440299 11.0051746,14.4440299 11.0051746,14.261194 C11.0051746,13.8955224 12.3428202,13.1032338 13.0116429,12.920398 C13.6196636,12.7985075 13.7412678,10.0559701 14.5316947,9.38557214 C14.8965071,9.08084577 15.0789133,8.59328358 15.0789133,8.41044776 C15.0789133,7.92288557 14.9573092,7.43532338 13.923674,7.06965174 C13.7412678,7.00870647 13.1940492,6.88681592 13.1940492,6.88681592 C13.1940492,6.7039801 14.2276843,6.09452736 14.6532988,6.09452736 C15.2005175,6.09452736 15.2005175,6.33830846 15.5045278,6.33830846 C16.1733506,6.33830846 16.538163,5.85074627 17.5717982,5.24129353 C18.7270375,4.6318408 20.6119017,2.55970149 22.5575679,2.55970149 C23.0439845,2.55970149 24.2600259,2.0721393 24.9896507,2.0721393 C25.9016818,2.0721393 26.3272962,1.88930348 26.3272962,1.21890547 C26.3272962,0.731343284 25.9624838,0 24.7464424,0 C22.4359638,0 21.5847348,0.548507463 20.1862872,0.548507463 C17.9974127,0.975124378 15.9909444,1.64552239 14.774903,2.01119403 L14.4100906,2.13308458 C14.3492885,2.13308458 14.2884864,2.19402985 14.2276843,2.19402985 C13.5588616,2.49875622 12.7684347,2.49875622 12.4036223,3.2300995 C12.0996119,3.96144279 8.39068564,4.93656716 7.47865459,6.58208955 C7.17464424,7.19154229 6.62742561,7.37437811 6.62742561,7.8619403 C6.62742561,7.92288557 6.74902975,8.28855721 6.74902975,8.34950249 C6.74902975,9.44651741 6.56662354,9.26368159 5.16817594,9.69029851 C4.19534282,10.1169154 3.16170763,12.0671642 3.16170763,12.7375622 C3.16170763,12.7985075 2.06727038,13.4079602 2.06727038,13.590796 C2.06727038,13.6517413 0.912031048,17.0646766 0.972833118,16.8818408 Z" id="Shape"></path>
                <path d="M76.0861813,43.7723881 C76.2942051,43.7723881 76.5854383,42.869403 76.6270431,42.7052239 C76.7102526,42.3768657 76.7518574,41.3097015 76.7934621,41.0223881 C76.7934621,40.3246269 76.6686478,38.4776119 76.6686478,37.7798507 C76.6686478,37.369403 76.9182764,35.2350746 76.9182764,34.5373134 C76.9182764,33.880597 76.5438336,33.8395522 76.5438336,33.3059701 C76.5438336,33.1007463 76.9182764,32.8955224 76.9182764,32.3619403 C76.9182764,32.3619403 76.9598811,31.3358209 76.9598811,30.8022388 C76.9598811,30.1455224 76.9182764,28.5858209 76.9182764,28.5858209 C76.9182764,26.9850746 76.0861813,26.4925373 76.0861813,26.369403 C76.0861813,26.2873134 76.7102526,25.5074627 76.7934621,24.9738806 C76.8350669,24.6044776 76.9598811,22.6753731 76.9598811,21.238806 C76.9598811,20.9514925 76.7102526,20.8283582 76.7102526,20.4589552 C76.7102526,20.2537313 77.0014859,19.9664179 77.0014859,19.6791045 C77.0014859,19.3097015 77.1679049,19.1455224 77.1679049,18.8171642 C77.1679049,18.3246269 77.4175334,17.9962687 77.4175334,17.8731343 C77.4175334,16.9291045 78,16.4776119 78,16.1902985 C78,15.8208955 77.6255572,15.6567164 77.4175334,15.6567164 C77.0430906,15.6567164 75.2540862,16.0261194 74.8796434,16.0261194 C74.6300149,16.0261194 74.2971768,15.9029851 73.7147103,15.738806 C73.2570579,15.738806 72.9658247,16.0261194 72.9658247,16.2313433 C72.9658247,16.6828358 73.5066865,17.1343284 73.756315,18.7761194 C74.0059435,20.2126866 74.0059435,20.8283582 74.0059435,21.238806 C74.0059435,22.2649254 74.0475483,22.511194 74.0475483,23.0037313 C74.0475483,23.7014925 74.7548291,23.1268657 74.7548291,23.619403 C74.7548291,23.9477612 74.1307578,24.1529851 74.089153,24.4402985 C74.089153,24.6865672 73.922734,25.261194 73.922734,26.1231343 C73.922734,26.2873134 74.1723626,26.4514925 74.1723626,26.9029851 C74.1723626,27.3134328 73.9643388,27.9291045 73.9643388,28.380597 C73.9643388,30.2276119 74.8380386,30.2686567 74.8380386,31.0074627 C74.8380386,31.5 74.3803863,31.0895522 74.3803863,32.1567164 C74.3803863,33.2649254 74.2139673,33.5522388 74.2139673,34.0037313 C74.2139673,34.2910448 74.2555721,35.1119403 74.3803863,35.5223881 C74.4219911,35.5223881 74.6300149,35.6455224 74.8380386,35.6455224 C74.9628529,35.6455224 75.0460624,35.8097015 75.0460624,35.891791 C75.0460624,36.4253731 74.2139673,36.2201493 74.1723626,37.1641791 C74.1723626,37.6567164 74.0475483,38.0261194 74.0475483,37.9440299 C73.589896,37.3283582 73.2154532,36.6716418 72.6745914,36.6716418 C72.5081724,36.6716418 72.3001486,36.7126866 71.9673105,36.7537313 C71.6344725,36.7537313 71.4264487,36.5895522 71.4264487,36.4253731 C71.4264487,36.1380597 72.3833581,36.3432836 72.3833581,36.0149254 C72.3833581,35.9738806 71.4264487,34.988806 70.9687964,34.988806 C70.4279346,34.988806 69.9286776,35.1529851 69.679049,35.1529851 C69.5958395,35.1529851 69.5542348,35.1529851 69.5542348,35.0708955 C69.5542348,34.9477612 70.1783061,34.7014925 70.1783061,34.0447761 C70.1783061,33.511194 69.9286776,33.1007463 69.346211,32.4440299 C69.2213967,32.3208955 68.7221397,32.0746269 68.5973254,31.9514925 C68.3476969,31.6641791 68.4725111,31.4179104 68.1396731,31.0074627 C67.7652303,30.5559701 67.8900446,30.2686567 66.6835067,29.6119403 C65.7682021,29.5298507 65.7682021,27.9701493 64.8112927,27.8470149 C64.4784547,27.5186567 63.9375929,26.1641791 63.3551263,26.1641791 C63.063893,26.1641791 62.2734027,26.1231343 61.8573551,26.1231343 C61.7741456,26.1231343 61.6909361,26.1231343 61.6909361,26.0820896 C61.6909361,25.5485075 62.1485884,25.1380597 62.1485884,24.8097015 C62.1485884,24.7276119 62.0653789,24.6455224 61.8989599,24.6455224 C61.6909361,24.6455224 61.2332838,24.6865672 60.7340267,24.6865672 C59.9851412,24.6865672 59.6106984,24.6044776 59.6106984,24.3171642 C59.6106984,24.1940299 59.6523031,23.9477612 60.2763744,23.9477612 C60.526003,23.9477612 60.6092125,23.7425373 60.6092125,23.4552239 C60.6092125,23.1268657 60.2347697,22.7985075 60.1515602,22.6343284 C60.1099554,22.5932836 59.5274889,21.608209 58.986627,21.3619403 C58.7786033,21.1567164 58.320951,21.4440299 58.2377415,21.3619403 C58.0713224,21.1977612 58.1545319,20.5 57.9881129,20.3358209 C57.4056464,19.761194 56.5735513,18.7761194 55.9494799,18.2425373 C55.6582467,17.9962687 55.2421991,18.0373134 54.9925706,17.75 C54.6181278,17.3395522 54.7013373,16.9701493 54.3268945,16.5597015 C53.3699851,15.4514925 52.1218425,15 51.7473997,15 C51.3313522,15 51.1649331,15.1641791 51.1649331,16.0261194 C51.1649331,16.4776119 50.9985141,17.75 51.4561664,18.2014925 C51.9138187,18.6529851 51.2065379,18.5298507 51.1233284,19.0634328 C51.0401189,19.5970149 51.1649331,19.9664179 51.1649331,19.9664179 C51.1649331,20.9514925 51.2065379,21.8134328 51.4561664,22.0186567 C51.7473997,22.3470149 52.7875186,22.2238806 52.7875186,22.8395522 C52.7875186,22.8395522 51.3313522,23.2910448 51.3313522,23.8246269 C51.3313522,24.8507463 51.2481426,24.8097015 51.2481426,26.0410448 C51.2481426,26.5746269 51.3313522,27.1902985 51.3313522,27.7649254 C51.3313522,28.9141791 51.2481426,29.9813433 51.2481426,30.4328358 C51.2481426,31.0074627 51.4977712,31.0074627 51.4977712,31.3358209 C51.4977712,31.7052239 51.2481426,32.3208955 51.2481426,32.608209 C51.2481426,33.2238806 51.3313522,33.2238806 51.3313522,34.7835821 C51.3313522,35.2761194 51.2481426,36.8358209 51.2481426,37.369403 C51.2481426,37.738806 51.4977712,38.108209 51.4977712,38.8059701 C51.4977712,39.75 51.0401189,39.4626866 51.0401189,41.0634328 C51.0401189,42.1716418 51.4977712,42.7462687 51.5809807,43.0335821 C51.5809807,43.1977612 51.2481426,43.1567164 50.9985141,43.6492537 C50.8736999,43.9365672 50.8320951,44.4701493 50.6656761,45.25 C50.5408618,45.9067164 50,46.6455224 50,46.9738806 C50,47.3022388 50.3744428,47.3022388 50.5824666,47.3022388 C51.0817236,47.3022388 51.6225854,46.9738806 52.1218425,46.9738806 C53.1619614,46.9738806 54.243685,47.3022388 54.6181278,47.3022388 C55.2005944,47.3022388 55.2838039,47.0970149 55.2838039,46.8507463 C55.2838039,46.3992537 54.9093611,45.5783582 54.6181278,44.6753731 C54.4933135,44.2649254 53.7860327,44.6753731 53.7860327,44.1828358 C53.7860327,43.8955224 54.410104,43.8955224 54.410104,42.7462687 C54.410104,40.7761194 54.2020802,40.0783582 53.9524517,40.0373134 C53.910847,40.0373134 53.6612184,39.9141791 53.6612184,39.8320896 C53.6612184,39.4216418 54.2020802,39.2985075 54.2020802,38.5186567 C54.2020802,38.2313433 53.9524517,37.3283582 53.9524517,36.7126866 C53.9524517,36.5895522 53.9940565,36.5074627 53.9940565,36.4253731 C54.077266,36.0559701 54.1604755,35.6455224 54.1604755,35.3171642 C54.1604755,35.1529851 54.1604755,35.0298507 54.077266,34.9477612 C53.910847,34.7425373 53.8692422,34.5783582 53.8692422,34.4552239 C53.8692422,34.2910448 53.9524517,34.1268657 53.9524517,33.8395522 C53.9524517,33.0186567 53.8692422,32.8134328 53.8692422,31.7873134 C53.8692422,31.5 53.5364042,30.8432836 53.5364042,30.5970149 C53.5364042,30.3507463 53.9940565,30.1455224 53.9940565,29.7350746 C53.9940565,28.9962687 54.0356612,28.5447761 54.0356612,28.2574627 C54.0356612,27.8880597 53.1619614,27.7238806 53.1619614,27.4776119 C53.1619614,27.0261194 53.910847,27.2723881 53.910847,25.7947761 C53.910847,25.7126866 54.0356612,26.2052239 54.9509658,26.9850746 C55.1173848,27.108209 55.2005944,27.3955224 55.3670134,27.5597015 C55.4502229,27.641791 55.9494799,27.7649254 55.9910847,27.8880597 C56.3239227,28.75 56.9063893,28.8320896 57.3224368,29.488806 C57.4056464,29.6529851 57.5720654,29.7350746 57.7800892,29.7350746 C58.1961367,29.7350746 58.48737,29.488806 58.7786033,29.488806 C58.9450223,29.488806 59.0698366,29.5708955 59.0698366,29.8171642 C59.0698366,29.9402985 58.48737,30.4328358 58.48737,30.7201493 C58.48737,31.0895522 59.6523031,32.0335821 59.9851412,32.4440299 C60.9836553,33.0597015 61.02526,33.2238806 61.02526,33.511194 C61.02526,33.6343284 61.02526,33.7985075 61.1084695,34.0447761 C61.191679,34.25 62.3566122,35.1529851 62.3566122,35.1529851 C62.3566122,35.2350746 62.4398217,35.2761194 62.5230312,35.2761194 C62.7726597,35.2761194 63.230312,35.0708955 63.6879643,35.0708955 C64.0208024,35.0708955 64.3120357,35.1529851 64.3120357,35.3171642 C64.3120357,35.8097015 63.4383358,35.4402985 63.4383358,35.9738806 C63.4383358,36.5485075 64.0208024,37.1641791 64.2704309,37.1641791 C64.3120357,37.1641791 64.3120357,37.7798507 64.6448737,37.7798507 C64.9777117,37.7798507 65.8098068,38.7238806 65.8514116,38.9291045 C65.9346211,39.4626866 66.4338782,39.3395522 66.97474,40.119403 C67.6820208,41.1455224 68.6389302,42.130597 69.179792,42.130597 C69.2213967,42.130597 69.679049,42.0485075 69.8870728,42.0485075 C70.0534918,42.0485075 70.1367013,42.130597 70.1367013,42.3768657 C70.1367013,42.5410448 69.6374443,42.9514925 69.6374443,43.0746269 C69.6374443,43.1977612 69.7622585,43.3208955 69.9702823,43.3208955 C70.5527489,43.3208955 70.6775632,42.9514925 71.0520059,42.9514925 C71.3432392,42.9514925 71.7592868,42.9514925 71.7592868,43.0746269 C71.7592868,43.4850746 71.0520059,43.8544776 71.0520059,44.2238806 C71.0520059,44.9216418 71.8424963,45.1679104 72.6745914,45.9067164 C72.7161961,45.9477612 73.1738484,46.3992537 73.2570579,46.4402985 C73.8811293,47.0149254 75.2124814,48 75.8365527,48 C76.5854383,48 76.6270431,47.4664179 76.6270431,46.1529851 C76.6270431,46.0298507 76.5022288,45.9067164 76.5022288,45.4962687 C76.5022288,44.7574627 76.5854383,44.1007463 76.0861813,43.7723881 Z M52.9123328,28.7910448 C52.9123328,28.5858209 53.0371471,28.5447761 53.1203566,28.5447761 C53.2451709,28.5447761 53.3699851,28.8320896 53.3699851,29.0373134 C53.3283804,29.2835821 53.2867756,29.3246269 53.2035661,29.3246269 C53.0787519,29.3246269 52.9123328,29.1604478 52.9123328,28.7910448 Z M68.1812779,39.3395522 C68.3476969,39.3395522 68.6389302,39.5447761 68.6389302,39.75 C68.6389302,39.9552239 68.3476969,40.1604478 68.2228826,40.1604478 C68.0564636,40.1604478 67.8484398,39.9141791 67.8484398,39.7089552 C67.8484398,39.5447761 67.9732541,39.3395522 68.1812779,39.3395522 Z M75.8365527,39.6268657 C75.961367,39.6268657 76.0445765,39.7089552 76.0445765,39.9962687 C76.0445765,40.4067164 75.9197623,40.488806 75.794948,40.488806 C75.5453195,40.488806 75.2540862,40.3246269 75.2540862,40.0373134 C75.2540862,39.8320896 75.5869242,39.6268657 75.8365527,39.6268657 Z M53.6196137,45.3320896 C53.7444279,45.3320896 53.7860327,45.4141791 53.7860327,45.8246269 C53.7860327,45.988806 53.6196137,46.1119403 53.5364042,46.1119403 C53.4115899,46.1119403 53.1619614,45.9067164 53.1619614,45.7425373 C53.1619614,45.5373134 53.4115899,45.3320896 53.6196137,45.3320896 Z" id="Shape"></path>
                <path d="M119.335137,20.840708 C119.665338,20.840708 119.954263,21.216182 119.954263,21.4247788 C119.954263,21.6333755 119.706613,21.7168142 119.417687,21.7168142 C119.170037,21.7168142 118.674736,21.5499368 118.674736,21.2996207 C118.716011,21.091024 119.170037,20.840708 119.335137,20.840708 Z M99.605656,22.426043 C99.9358565,22.426043 100.100957,22.6346397 100.100957,22.8849558 C100.100957,23.1769912 99.8533064,23.3021492 99.5231059,23.3021492 C99.3580056,23.3021492 99.1516303,23.1769912 99.1516303,22.9683944 C99.1516303,22.7597977 99.3580056,22.426043 99.605656,22.426043 Z M89.5345401,24.8457649 C89.5345401,24.5120101 89.7409154,24.4285714 90.0298409,24.4285714 C90.3600414,24.4285714 90.5664167,24.5954488 90.5664167,24.8457649 C90.5664167,25.1378003 90.3600414,25.2212389 90.0298409,25.2212389 C89.7409154,25.2212389 89.5345401,25.1378003 89.5345401,24.8457649 Z M88.5439385,22.5094817 C88.5439385,22.1340076 90.0298409,22.1757269 90.0298409,21.7585335 C90.0298409,21.4664981 89.7409154,21.4247788 89.4107149,21.4247788 C89.1217894,21.4247788 88.832864,21.4664981 88.5852136,21.4664981 C88.2962881,21.4664981 88.3788383,21.7585335 88.1724629,21.7585335 C87.8422624,21.7585335 87.6358871,21.5082174 87.6358871,21.3830594 C87.6358871,20.7572693 88.4201133,20.965866 89.0392393,20.6321113 C89.2868897,20.4652339 89.7409154,20.2566372 89.7409154,19.8394437 C89.7409154,18.9216182 89.0392393,18.3375474 89.0392393,17.6700379 C89.0392393,16.7939317 89.5345401,15.9178255 89.5345401,15.6257901 C89.5345401,15.3754741 89.1630645,15.125158 88.5439385,15.125158 C87.6771621,15.125158 86.1087097,15.9178255 85.2006582,15.9178255 C84.9117328,15.9178255 83.5496556,15.7926675 83.0956299,15.6675095 C82.559054,15.5006321 81.1969769,15.2920354 80.7842262,15.2920354 C80.2476504,15.2920354 80,15.4589128 80,15.7092288 C80,16.3767383 81.3208021,18.2123894 81.8161029,18.7130215 C82.3114037,19.2136536 82.3939538,19.4222503 82.6828792,20.1731985 L83.0956299,21.3830594 C83.17818,21.8002528 84.416432,22.3426043 84.416432,22.3426043 C84.416432,22.3843236 84.4577071,22.426043 84.4577071,22.4677623 C84.4577071,22.7180784 84.2513317,22.9266751 84.2513317,23.3021492 C84.2513317,23.3855879 84.2513317,23.4690265 84.2926068,23.5524652 C84.416432,23.88622 84.3338819,24.5537295 84.5815322,25.3046776 C84.7053574,25.596713 85.5308587,26.8900126 85.8610593,27.7661188 C85.9848845,28.2250316 86.934211,28.2667509 86.975486,28.391909 C86.975486,28.8508217 86.5214603,28.9759798 86.5214603,29.4766119 C86.5214603,29.6017699 86.5214603,29.7269279 86.6040104,29.8938053 C86.6040104,29.8938053 86.934211,31.312263 87.5120619,31.687737 C88.1724629,33.1061947 88.2962881,34.482933 88.7915889,34.482933 C89.1630645,34.5246523 90.2774913,35.0252845 90.2774913,35.1087231 C90.2774913,35.3173198 90.1949411,35.4007585 89.9060157,35.5259166 L89.3694398,35.817952 C89.3281648,35.8596713 89.3281648,35.9013906 89.3281648,35.9848293 C89.3281648,36.193426 89.4107149,36.5689001 89.45199,36.7774968 C89.45199,36.8192162 89.4107149,37.1112516 89.4107149,37.3198483 C89.4107149,37.4450063 89.4107149,37.5701643 89.493265,37.5701643 C89.5345401,37.5701643 89.6996403,37.5701643 89.6996403,37.6118837 C89.7821905,37.8621997 89.9885658,38.6548673 90.1949411,39.2389381 C90.4013165,39.7395702 90.772792,39.5726928 91.0204424,40.1984829 C91.0617175,40.2819216 91.0617175,40.323641 91.0617175,40.4070796 L91.0617175,40.7408344 C91.0617175,40.9494311 91.1029926,41.3249052 91.3093679,41.908976 C91.4331931,42.034134 91.5982933,42.159292 91.6395684,42.159292 C91.7221185,42.159292 91.8459437,41.8672566 92.0523191,41.3666245 C92.1348692,41.1580278 92.2174193,41.0745891 92.2999695,41.0328698 C92.3412445,41.0328698 92.4237947,41.0745891 92.4237947,41.0745891 C92.4237947,41.1580278 92.2586944,42.3261694 92.2174193,42.7016435 C92.1761443,43.1188369 92.0935941,43.3274336 92.0935941,43.5360303 C92.0935941,43.6611884 92.1348692,43.7863464 92.2586944,43.9949431 C92.5888949,44.4538559 92.7952702,44.2869785 92.9190954,44.6207332 C93.1667458,45.2882427 93.1667458,45.1213654 93.4556713,45.7888748 L94.1160723,47.3324905 C94.2811726,47.6662453 94.4462729,47.874842 94.9415736,47.874842 C95.6432497,47.874842 96.2211007,47.0404551 96.3449259,46.7067004 C96.5100261,46.0809102 96.7576765,45.6637168 97.2117022,45.204804 C97.707003,44.4538559 97.8308282,44.1618205 97.8308282,43.8280657 C97.8308282,43.619469 97.5006277,43.5360303 97.5006277,43.2439949 C97.5006277,42.9936789 97.8308282,43.0771176 97.9546534,43.0353982 C98.4086791,42.8268015 98.8214298,41.8255373 99.0278051,40.8242731 C99.3167306,39.5726928 100.183507,39.0303413 100.183507,38.5297092 C100.183507,38.1542351 100.100957,37.9039191 100.059682,37.6118837 C100.059682,37.1529709 100.967733,37.0695322 101.132833,36.4437421 C101.132833,36.068268 101.339209,35.7762326 101.710684,35.2338812 C101.875785,34.9418458 102.536186,33.5651075 102.660011,33.1061947 C102.866386,33.1061947 102.907661,33.3147914 103.237862,33.9823009 C103.444237,34.5246523 103.361687,34.7332491 103.526787,35.3173198 C103.774438,35.8596713 103.939538,35.7762326 104.393564,36.9443742 C104.517389,37.3198483 105.09524,37.9456384 105.09524,38.3211125 C105.09524,38.4879899 105.219065,39.0720607 105.219065,39.2389381 C105.219065,39.9898862 105.59054,40.7825537 106.828792,40.9911504 C107.530469,41.1163085 108.067044,41.2831858 108.067044,41.4083439 C108.025769,41.7003793 107.778119,41.7420986 107.282818,41.7420986 C106.870068,41.7420986 106.292217,41.6586599 106.003291,41.6586599 C105.920741,41.6586599 105.879466,41.7420986 105.879466,41.8672566 C105.962016,42.2844501 107.406643,42.7850822 107.406643,43.1188369 C107.365368,43.4525917 107.035168,43.5360303 107.035168,43.7863464 C107.035168,44.3704172 107.365368,44.9962073 108.19087,46.5815424 C108.232145,46.664981 108.314695,46.7484197 108.35597,46.8735777 C108.727445,47.5410872 109.181471,48 109.511672,48 C109.883147,48 110.295898,47.2907712 110.584823,46.7901391 C110.915024,46.2060683 111.53415,44.2869785 111.7818,44.1201011 C112.153276,43.8697851 112.607302,42.1175727 112.978777,41.8672566 C113.102602,41.783818 113.185152,40.8242731 113.474078,39.9064475 C113.474078,39.8230088 113.515353,39.7812895 113.515353,39.7395702 C113.515353,39.5309735 113.432803,39.3640961 113.432803,39.1972187 C113.432803,39.11378 113.432803,39.0303413 113.556628,38.9469027 C113.721728,38.8217446 114.051929,38.6131479 114.258304,38.1542351 C114.753605,37.1112516 115.331456,35.5676359 115.661656,34.6498104 C115.909307,33.9405815 116.528433,31.8546144 116.941183,31.2288243 C117.477759,30.3527181 118.468361,27.8495575 118.550911,27.4323641 C119.004937,25.7635904 119.830438,25.3881163 119.830438,24.8040455 C119.830438,24.5954488 119.706613,24.5537295 119.458962,24.5537295 C119.252587,24.5537295 119.046212,24.5954488 118.881112,24.5954488 C118.798561,24.5954488 118.716011,24.5954488 118.716011,24.5120101 C118.716011,24.011378 120.532114,23.3855879 120.532114,22.676359 C120.532114,22.0922882 121.357615,21.5499368 121.39889,20.5486726 C121.39889,19.8811631 122.430767,18.5461441 122.430767,18.045512 C122.430767,17.5448799 124.040495,16.0847029 123.99922,15.6675095 C123.99922,15.2503161 123.751569,15.0834387 123.380094,15.0834387 C122.678418,15.0834387 122.513317,15.5423515 121.646541,15.5423515 C121.357615,15.5423515 120.284464,15.0417193 119.417687,15.0417193 C118.963662,15.0417193 118.633461,15.1668774 118.633461,15.5423515 C118.633461,16.0847029 118.716011,16.5436157 118.716011,17.0442478 C118.716011,17.5031606 118.633461,18.045512 118.427086,18.7547408 C118.427086,19.5891277 118.014335,20.5486726 117.72541,21.2996207 C117.230109,22.426043 117.147559,23.1352718 117.023734,23.5941846 C116.404608,25.4298357 115.826757,27.05689 115.826757,27.4740834 C115.826757,27.8495575 116.693533,28.391909 116.693533,28.7673831 C116.693533,29.0594185 116.569708,29.1428571 116.445883,29.1428571 C116.156957,29.1428571 115.372731,28.6839444 115.248906,28.6839444 C114.87743,28.6839444 114.134479,31.9797724 114.051929,31.9797724 C114.051929,32.1049305 114.217029,33.3565107 114.217029,33.4816688 C114.217029,33.8571429 113.432803,33.4816688 113.143877,34.4412137 C112.896227,35.3173198 112.029451,37.0278129 111.53415,38.6548673 C111.53415,37.9039191 110.997574,37.403287 110.791199,37.403287 L109.965697,37.403287 C109.759322,37.403287 109.429122,37.1946903 109.429122,37.0695322 C109.470397,36.6523388 110.254623,36.8192162 110.295898,35.9848293 C110.295898,35.3590392 109.924422,34.6498104 109.346571,34.2743363 C109.222746,34.1491783 109.181471,34.1074589 109.181471,34.0657396 C109.222746,33.9823009 109.305296,33.8988622 109.305296,33.5651075 C109.305296,32.9393173 108.232145,32.6472819 108.19087,32.2300885 C108.232145,31.9380531 108.479795,31.7294564 108.479795,31.6042984 C108.479795,31.1453856 108.067044,30.5195954 107.654294,29.6017699 L107.158993,27.9329962 C106.746242,27.3072061 106.746242,26.7231353 106.746242,26.4728192 C106.746242,25.8887484 107.736844,23.9696587 107.984494,23.3855879 C108.851271,21.3830594 109.057646,20.7155499 109.264021,20.0897598 C109.387846,19.505689 109.800597,19.9646018 110.006972,19.0050569 C110.130798,18.3375474 110.873749,18.17067 110.956299,17.6700379 C111.080124,17.1694058 112.112001,16.1264223 112.153276,15.7092288 C112.194551,15.6257901 112.194551,15.5840708 112.194551,15.5006321 C112.194551,15.2503161 111.988176,15.125158 111.657975,15.125158 C111.038849,15.125158 110.667374,15.3754741 109.883147,15.3754741 C109.594222,15.3754741 109.098921,15.0834387 108.27342,15.0834387 C107.860669,15.0834387 107.447918,15.2085967 107.447918,15.5423515 C107.447918,15.8761062 107.489193,16.1681416 107.489193,16.460177 C107.489193,16.7939317 107.447918,17.1276865 107.200268,17.5865992 C107.035168,18.0037927 106.498592,19.8394437 106.374767,20.5486726 L106.374767,20.7155499 C106.374767,20.965866 106.498592,21.3413401 106.498592,21.5916561 C106.498592,21.6750948 106.457317,21.7168142 106.457317,21.7585335 C106.374767,21.9254109 105.962016,22.0088496 105.879466,22.1757269 C105.549265,22.7597977 105.34289,23.8027813 105.136515,23.8027813 C105.01269,23.8027813 103.898263,21.3413401 103.898263,21.1327434 C103.898263,21.091024 103.939538,21.1744627 103.980813,21.216182 C103.815713,21.0075853 103.114037,21.091024 103.114037,20.7989886 C103.114037,20.3817952 103.609337,20.0063211 103.609337,19.7560051 C103.609337,19.3388116 102.866386,17.1276865 102.040885,16.8773704 C101.99961,16.8773704 101.958335,16.8356511 101.958335,16.7939317 C101.958335,16.5436157 102.660011,15.9178255 102.660011,15.5840708 C102.660011,15.125158 101.958335,15 101.504309,15 C101.050283,15 99.4818308,15.3337547 98.4499542,15.3337547 C98.2848539,15.3337547 97.1291521,15 95.4368744,15 C94.6113731,15 94.528823,15.125158 94.528823,15.6257901 C94.528823,15.9178255 94.6113731,16.3767383 95.4368744,17.1276865 C96.2211007,17.8786346 96.3036508,19.0884956 96.8402266,19.8394437 C97.8721033,21.2579014 99.5231059,20.5486726 99.5231059,20.965866 C99.5231059,21.216182 99.3167306,21.4664981 98.8627048,21.4664981 C98.0372035,21.4664981 97.7482781,21.6333755 97.7482781,21.8002528 C97.7482781,22.0922882 98.0372035,23.2187105 98.945255,24.6371681 C99.1103552,24.8874842 100.224782,25.1795196 100.224782,25.471555 C100.224782,25.7635904 99.4818308,25.8053097 99.4818308,26.1390645 C99.4818308,26.3893805 100.018407,26.6396966 100.100957,26.931732 C100.142232,27.0151707 100.142232,27.05689 100.142232,27.1403287 C100.142232,27.3489254 100.059682,27.5575221 100.059682,27.7243995 C100.142232,28.4753477 101.132833,29.8103666 101.132833,30.3109987 C101.132833,31.1871049 100.100957,32.7724399 100.142232,32.897598 C100.142232,33.0644753 100.885183,33.2730721 100.885183,33.3565107 C100.926458,33.8154235 99.3580056,33.5233881 99.3580056,34.7332491 C99.3580056,36.2768647 98.945255,35.8596713 98.7388796,36.2768647 C98.3674041,37.0278129 97.4180776,39.4058154 97.1704272,39.4058154 C96.9227768,39.0303413 96.6338513,37.653603 95.8496251,36.9443742 C95.0653988,36.2351454 95.4368744,35.7762326 95.147949,35.1504425 C94.8590235,34.357775 93.7033217,34.7749684 93.7033217,34.1908976 C93.7033217,33.9823009 94.7351983,33.8154235 94.6939232,33.4816688 C94.528823,32.2300885 94.0747973,32.1049305 93.7033217,32.1049305 C93.4969464,32.1049305 93.4556713,31.9797724 93.4556713,31.8128951 C93.4556713,31.5208597 93.6620466,31.0202276 93.6620466,30.7281922 C93.6620466,30.6447535 93.6620466,30.6030341 93.6207715,30.5613148 C93.3731212,29.977244 93.1667458,29.8103666 93.1667458,29.2262958 C93.1667458,29.1845765 92.63017,28.4753477 92.63017,28.0164349 C92.63017,26.931732 91.0204424,25.9721871 91.0204424,25.8470291 C91.0204424,25.3881163 91.3093679,25.2212389 91.3093679,24.9292035 C91.3093679,24.2199747 90.9378923,24.1782554 90.6076918,23.6359039 C90.1536661,22.6346397 88.5439385,22.9683944 88.5439385,22.5094817 Z M92.9603705,41.7003793 C93.0016456,41.7003793 93.0429206,41.6586599 93.0841957,41.6586599 C93.1667458,41.6586599 93.249296,41.7003793 93.249296,41.783818 C93.290571,41.8255373 93.290571,41.908976 93.290571,41.9506953 C93.290571,42.2010114 93.0841957,42.4513274 92.8365453,42.5347661 C92.7539952,42.4096081 92.7127201,42.2844501 92.7127201,42.159292 C92.7127201,41.9506953 92.7539952,41.783818 92.9603705,41.7003793 Z" id="Shape"></path>
                <path d="M139.098555,17.8506901 C138.202365,19.4240903 138.854139,19.5069009 138.161629,20.5006274 C137.46912,21.2873275 137.346912,22.6537014 136.980289,23.3161857 C136.247043,24.434128 136.165572,25.0966123 136.165572,25.7590966 L136.328515,26.9184442 C136.328515,27.4567127 135.961892,27.4981179 135.513798,27.4981179 C135.39159,27.4981179 135.269382,27.4981179 135.228647,27.6223338 C134.862024,28.4090339 134.169514,30.0238394 134.169514,30.3550816 C133.395532,30.3550816 133.273325,30.3964868 132.82523,30.3964868 C131.195795,30.3964868 129.56636,32.3011292 129.56636,32.6737767 C129.56636,32.9222083 130.055191,33.0050188 130.055191,33.1706399 C129.973719,33.6260979 129.07753,33.4190715 128.670171,33.8745295 C128.303548,34.2885822 127.896189,35.1166876 127.896189,35.4065245 C127.896189,35.6963614 128.018397,35.8619824 128.222076,35.8619824 C128.303548,35.8619824 128.751643,35.6135508 129.159001,35.3651192 C129.688568,34.9924718 131.073587,34.7854454 131.603154,34.7854454 C132.010512,34.7854454 132.295664,34.9096612 132.295664,35.1994981 C132.295664,35.2409034 132.010512,35.5307403 132.010512,35.9033877 C131.725361,36.6072773 131.806833,36.7314931 131.603154,37.1869511 C131.358739,37.5595985 130.992116,38.0150565 130.910644,38.3462986 C130.829172,38.7603513 130.829172,38.8845671 130.829172,38.9259724 C130.788436,39.0915935 131.480946,39.5056462 131.480946,39.7126725 C131.358739,40.1681305 130.177398,39.8368883 129.932983,40.5407779 C129.525624,41.8657465 128.833114,42.9836888 128.670171,43.6875784 C128.507227,44.4742785 128.018397,44.9297365 127.773982,45.2609787 C127.448095,45.9648683 127,46.1304893 127,46.6273526 C127,46.7929737 127.122208,46.9585947 127.407359,46.9585947 C127.69251,46.9585947 128.303548,46.7515684 128.670171,46.7515684 C129.444152,46.7515684 130.788436,46.9585947 131.358739,46.9585947 C131.725361,46.9585947 131.806833,46.5031368 131.806833,46.2961104 C131.806833,45.8820577 131.766097,45.5508156 131.725361,45.3023839 C131.725361,45.1367629 131.847569,44.4742785 131.888305,43.9774153 C131.888305,43.93601 131.480946,43.5219573 131.480946,43.2735257 C131.480946,43.2321205 131.480946,43.1907152 131.521682,43.1493099 C131.766097,42.859473 132.336399,42.6524467 132.417871,41.8243413 C132.417871,41.4930991 132.540079,41.0790464 132.540079,40.9134253 C132.540079,40.706399 132.743758,40.6649937 133.069645,39.7540778 C133.395532,38.8017566 133.599212,38.4705144 133.599212,38.3462986 C133.599212,38.2634881 132.947438,38.2634881 132.947438,37.5595985 C132.947438,37.3939774 133.232589,37.3939774 133.477004,37.3939774 C133.762155,37.3939774 134.00657,37.2697616 134.047306,36.8971142 C134.088042,36.6900878 134.373193,36.4830615 134.495401,35.6135508 C134.495401,35.5721455 134.169514,35.1994981 134.169514,35.033877 C134.169514,34.9510665 134.21025,34.9096612 134.373193,34.9096612 C135.310118,34.9096612 134.780552,35.4065245 136.0841,35.7791719 C137.672799,36.2346299 138.161629,36.4830615 139.098555,36.4830615 C140.198423,36.4830615 140.687254,36.9385194 141.542707,36.9385194 C141.583443,36.9385194 141.746386,36.8557089 141.746386,36.7314931 C141.746386,36.4830615 141.950066,36.4416562 142.113009,36.4416562 C142.642576,36.4416562 143.172142,37.1041405 143.742444,37.2283563 L145.901445,37.6010038 C146.023653,37.6010038 146.227332,37.9322459 146.431012,38.4291092 C146.797635,39.2572146 146.919842,40.2095358 147.449409,40.4579674 C148.141919,40.8720201 148.345598,41.0790464 148.345598,41.2032622 C148.345598,41.4516939 147.73456,41.4102886 147.73456,41.4930991 C147.73456,42.0727729 148.141919,42.0727729 148.141919,42.9422836 C148.141919,43.1907152 148.467806,44.5156838 148.467806,44.9297365 C148.467806,45.2609787 148.42707,45.5922208 148.42707,46.4617315 C148.42707,47 148.590013,47 149.201051,47 C149.852825,47 150.830486,46.4617315 151.319317,46.6273526 C151.68594,46.7515684 152.704336,46.4617315 153.070959,46.4617315 C154.089356,46.4617315 156.12615,46.9585947 156.655716,46.9585947 C157.348226,46.9585947 158,46.9171895 158,46.4617315 C158,45.9648683 157.226018,45.8406524 156.533509,44.846926 C156.12615,44.3086575 155.515112,42.8180678 155.107753,42.4040151 C154.415243,41.7001255 154.415243,40.3337516 153.926413,39.5884567 C153.804205,39.4228356 153.763469,39.3814304 153.681997,39.3814304 C153.55979,39.3814304 153.437582,39.4642409 153.233903,39.4642409 C152.500657,39.4642409 152.17477,39.2986198 152.17477,39.174404 C152.17477,38.9673777 153.396846,38.4705144 153.396846,38.2634881 C153.396846,38.1392723 152.948752,38.097867 152.541393,38.097867 C152.296978,38.097867 152.052562,38.3462986 151.604468,38.3462986 C151.48226,38.3462986 151.319317,38.2220828 151.319317,38.1392723 C151.319317,37.8080301 152.419185,37.5181932 152.419185,36.8971142 C152.419185,36.8143036 152.296978,36.5244668 152.296978,36.4416562 C152.296978,36.4002509 152.337714,36.3588457 152.419185,36.3174404 C152.500657,36.2760351 152.663601,36.1932246 152.948752,35.944793 C153.193167,35.7791719 154.089356,34.868256 154.130092,34.3299875 C154.130092,34.1643664 153.926413,33.9987453 153.763469,33.9987453 C153.233903,33.9987453 152.541393,34.5784191 151.848883,34.5784191 C151.360053,34.5784191 151.237845,33.2948557 151.237845,33.2534504 C151.278581,33.1706399 150.178712,31.0175659 150.178712,30.9347553 C149.852825,29.8996236 149.812089,29.5269762 149.567674,29.2785445 C149.404731,29.1129235 147.856767,28.7816813 147.856767,28.2848181 C147.856767,27.9121706 148.752957,28.119197 148.752957,27.6223338 C148.752957,27.0840652 148.22339,26.0903388 148.101183,26.0903388 C148.101183,26.0903388 147.693824,25.0966123 147.693824,24.5997491 C147.653088,24.1442911 147.04205,23.8958595 146.512484,23.4818068 C146.512484,23.4818068 146.512484,22.2396487 146.105125,21.7013802 C145.371879,20.5834379 145.412615,20.5834379 144.923784,19.5069009 C144.516426,18.6373902 144.679369,18.3061481 144.272011,18.0577164 C143.660972,17.6436637 143.172142,17.8092848 142.927727,17.1882058 C142.927727,16.9397742 143.701708,16.8569636 143.701708,16.5671267 C143.701708,16.5257215 143.660972,16.4843162 143.620237,16.4015056 C142.846255,15.3663739 142.520368,14 141.827858,14 C141.135348,14 140.768725,14.3726474 140.361367,15.1593476 C139.872536,16.1116688 139.872536,16.5257215 139.098555,17.8506901 Z M153.152431,41.9071518 C153.193167,41.5759097 153.519054,41.2032622 153.681997,41.2032622 C153.763469,41.2032622 153.885677,41.2860728 153.885677,41.4930991 C153.885677,41.9899624 153.681997,42.1141782 153.519054,42.1141782 C153.233903,42.1141782 153.152431,42.0727729 153.152431,41.9071518 Z M142.927727,26.5043915 C142.927727,26.5457967 141.950066,27.0012547 141.950066,27.2496863 C141.950066,27.663739 142.316689,27.663739 142.39816,28.2848181 C142.805519,29.5269762 143.660972,29.2785445 143.660972,29.9824341 C143.660972,30.2308657 143.457293,30.5621079 143.457293,30.5621079 C143.457293,31.1417817 144.312746,32.0112923 144.557162,33.0464241 C144.557162,33.0878294 145.045992,34.4956085 145.005256,34.4956085 C144.842313,34.4956085 143.212878,33.8745295 143.09067,33.8745295 C142.805519,33.8745295 142.683311,33.4604768 141.583443,33.0878294 C141.257556,33.0050188 141.013141,32.9636136 140.809461,32.9636136 C140.605782,32.9636136 140.483574,33.0050188 140.402102,33.0050188 C140.361367,33.0050188 140.320631,32.9636136 140.320631,32.9222083 C140.320631,32.6737767 139.668857,32.1355082 139.587385,32.1355082 C139.220762,32.1355082 138.528252,32.6323714 137.95795,32.6323714 C137.795007,32.6323714 137.672799,32.6323714 137.672799,32.5081556 C137.672799,32.3425345 137.876478,32.0941029 137.876478,32.0112923 C137.876478,31.8456713 137.835742,31.7214555 137.713535,31.7214555 C137.550591,31.7214555 137.306176,31.7214555 137.102497,31.6386449 C136.77661,31.5144291 136.450723,31.2245922 136.450723,30.9347553 C136.450723,30.5621079 136.898817,29.7340025 136.939553,29.2371393 C136.980289,28.8230866 136.980289,28.2848181 137.26544,27.663739 C137.835742,26.3801757 137.998686,25.8833124 137.998686,25.7176913 C137.998686,24.8481807 138.406045,24.7239649 138.731932,23.6474279 C138.976347,22.8193225 138.976347,22.6122961 139.302234,22.1568381 C139.383706,21.9912171 139.505913,21.9084065 139.587385,21.9084065 C139.750329,21.9084065 139.913272,22.1154329 140.076216,22.5708908 C140.361367,23.3161857 140.076216,23.8130489 140.52431,24.434128 C140.972405,25.055207 140.52431,24.9723965 141.013141,25.5520703 C141.379763,26.131744 142.927727,26.131744 142.927727,26.5043915 Z M144.109067,35.3651192 C144.272011,35.3651192 144.47569,35.1580928 144.597898,35.1580928 C144.720105,35.1580928 144.842313,35.3651192 144.96452,35.4479297 C145.005256,35.489335 145.045992,35.7791719 145.045992,35.8205772 C145.045992,35.944793 144.597898,35.8619824 144.109067,36.1104141 C144.027595,36.1104141 143.946124,35.9861982 143.905388,35.9861982 C143.823916,35.9861982 143.78318,35.8619824 143.78318,35.7791719 C143.78318,35.6135508 143.946124,35.4065245 144.109067,35.3651192 Z M146.186597,24.7239649 C146.308804,24.5997491 146.390276,24.5169385 146.512484,24.5169385 C146.797635,24.5169385 147.001314,24.5997491 147.001314,25.055207 C147.001314,25.3036386 146.919842,25.6348808 146.675427,25.6348808 C146.390276,25.6348808 146.064389,25.4692597 146.064389,25.055207 C146.064389,24.9309912 146.105125,24.8067754 146.186597,24.7239649 Z" id="Shape"></path>
                <path d="M167.352774,20.5747126 C167.352774,20.1111111 168.920341,20.3218391 168.920341,19.3524904 C168.920341,19.0574713 168.796586,18.8045977 168.796586,18.467433 C168.796586,17.8773946 168.837838,16.5708812 170.322902,16.3180077 C171.106686,16.1915709 171.931721,16.0651341 172.880512,16.0651341 C173.664296,16.0651341 174.159317,16.2337165 174.406828,16.2337165 C174.778094,16.2337165 174.901849,16.0651341 175.273115,16.0651341 C175.933144,16.0651341 177.70697,16.3601533 178.16074,17.835249 C178.325747,18.2145594 178.903272,19.3103448 179.027027,19.816092 C179.109531,20.2796935 179.027027,21.2911877 179.150782,21.3333333 C179.233286,21.3754789 179.522048,21.4597701 179.522048,21.6704981 C179.522048,21.9233716 178.614509,22.8505747 178.614509,23.4827586 C178.614509,24.0727969 178.697013,24.1149425 178.697013,24.6206897 C178.697013,24.8735632 178.16074,25.3793103 178.16074,25.5478927 C178.16074,26.2222222 176.923186,27.5287356 176.469417,27.7816092 C175.933144,28.0344828 175.355619,28.6245211 174.819346,28.7088123 C173.004267,28.9195402 172.715505,29.2988506 172.426743,29.2988506 C172.055477,29.2988506 172.302987,28.835249 171.354196,28.835249 C170.859175,28.835249 170.446657,28.9195402 170.199147,28.9195402 C169.704125,28.9195402 168.920341,28.3295019 168.920341,27.697318 C168.920341,27.1494253 169.044097,26.559387 169.044097,25.8850575 C169.044097,25.7164751 168.87909,25.3371648 168.87909,25.1685824 C168.87909,24.9157088 169.002845,24.8735632 169.085349,24.6628352 C169.1266,24.5363985 169.1266,24.3678161 169.1266,24.2413793 C169.1266,23.9463602 169.085349,23.7356322 169.085349,23.6934866 C169.085349,23.3984674 168.631579,23.3984674 168.631579,22.8505747 C168.631579,22.5977011 168.961593,22.3869732 168.961593,21.7969349 C168.961593,21.4176245 168.177809,21.5019157 168.177809,21.1226054 C168.177809,20.7011494 167.352774,20.7854406 167.352774,20.5747126 Z M167.97155,37.0536398 C168.054054,37.0536398 168.177809,37.1800766 168.177809,37.6015326 C168.177809,37.8965517 167.889047,37.9808429 167.765292,37.9808429 C167.559033,37.9808429 167.352774,37.8544061 167.352774,37.6015326 C167.352774,37.4329502 167.72404,37.0536398 167.97155,37.0536398 Z M174.44808,30.0996169 C174.571835,30.0996169 174.613087,30.2681992 174.69559,30.4789272 C174.69559,30.6475096 174.44808,30.7318008 174.241821,30.7318008 C173.953058,30.7318008 173.746799,30.6896552 173.746799,30.5632184 C173.746799,30.3524904 174.241821,30.0996169 174.44808,30.0996169 Z M167.72404,18.9310345 C167.889047,18.9310345 168.012802,19.0153257 168.012802,19.1417625 C168.012802,19.2681992 167.682788,19.605364 167.476529,19.605364 C167.27027,19.605364 166.981508,19.5632184 166.981508,19.3524904 C166.981508,19.2260536 167.600284,18.9310345 167.72404,18.9310345 Z M164.877667,46.3256705 C165.248933,46.3256705 166.940256,46.2835249 167.435277,46.4521073 C168.219061,46.6628352 168.631579,46.789272 169.662873,46.789272 C169.951636,46.789272 170.28165,46.6628352 170.28165,46.3256705 C170.28165,45.9042146 169.291607,44.6398467 169.291607,43.5440613 C169.291607,43.2911877 169.002845,43.2068966 169.002845,43.0804598 C169.002845,42.9118774 169.085349,42.7854406 169.085349,42.5747126 C169.085349,42.3218391 169.044097,42.3639847 169.044097,41.9003831 C169.044097,41.7318008 168.87909,41.5632184 168.714083,41.5632184 C168.342817,41.5632184 167.641536,41.7739464 167.146515,41.7739464 C166.981508,41.7739464 166.899004,41.7318008 166.899004,41.6475096 C166.899004,41.4789272 167.806543,40.7624521 168.095306,40.5938697 C168.631579,40.256705 169.085349,40.3409962 169.085349,40.045977 C169.085349,39.7931034 168.961593,38.8659004 168.961593,38.1072797 C168.961593,37.9808429 169.044097,37.0536398 169.044097,36.0421456 C169.044097,35.7049808 168.631579,35.5363985 168.631579,35.2835249 C168.631579,34.9463602 169.044097,34.5670498 169.044097,34.1877395 C169.044097,32.9233716 167.97155,33.5977011 167.97155,33.2183908 C167.97155,32.8812261 169.044097,33.2183908 169.044097,31.743295 C169.044097,31.1532567 169.497866,31.1111111 170.034139,31.1111111 C170.446657,31.1111111 171.106686,31.1532567 171.601707,31.1532567 C172.179232,31.1532567 173.086771,32.0383142 173.375533,32.164751 C174.69559,32.7969349 174.901849,34.7777778 175.520626,34.7777778 C175.685633,34.7777778 175.974395,34.7356322 176.510669,34.7356322 C176.634424,34.7356322 176.758179,34.9042146 176.758179,34.9885057 C176.758179,35.5785441 175.85064,35.6206897 175.85064,36.0421456 C175.85064,36.5057471 176.758179,37.8965517 177.253201,39.2873563 C177.500711,40.045977 178.490754,40.3409962 178.490754,40.8045977 C178.490754,41.0996169 178.119488,41.1417625 178.119488,41.4367816 C178.119488,41.9425287 178.655761,43.0383142 179.150782,43.7969349 C179.192034,43.8812261 180.223329,44.1762452 180.305832,44.302682 C180.347084,44.3869732 180.429587,44.8505747 180.429587,44.9348659 C180.429587,45.4827586 180.512091,45.4827586 180.883357,45.862069 C182.079659,46.8314176 183.564723,46.9157088 185.957326,47 L186.576102,46.5785441 C187.071124,46.6206897 187.524893,46.8314176 187.854908,46.8314176 C188.184922,46.8314176 188.514936,46.8314176 188.886202,46.8314176 C189.587482,46.8314176 190,46.6206897 190,46.1149425 C190,45.6934866 189.257468,45.651341 188.556188,45.1877395 C187.566145,44.51341 187.029872,44.0076628 186.534851,43.4176245 C186.246088,43.0804598 185.627312,42.1111111 185.256046,41.4367816 C184.967283,40.8888889 183.97724,41.2260536 183.97724,40.8888889 C183.97724,40.8045977 184.596017,40.5517241 184.596017,40.2988506 C184.142248,38.5708812 183.770982,37.3908046 183.110953,37.3908046 C182.987198,37.3908046 182.698435,37.5172414 182.533428,37.5172414 C182.492176,37.5172414 182.409673,37.4329502 182.409673,37.3908046 C182.409673,36.8007663 182.987198,36.6743295 182.987198,36.1685824 C182.987198,35.8735632 182.863442,35.7049808 182.698435,35.7049808 C182.492176,35.7049808 182.038407,35.9578544 181.708393,35.9578544 C181.460882,35.9578544 181.089616,35.6206897 181.089616,35.4099617 C181.089616,35.3678161 181.130868,35.2835249 181.172119,35.2835249 C181.708393,35.1992337 181.955903,34.862069 181.955903,34.7356322 C181.955903,33.4712644 180.223329,31.9961686 179.975818,31.8275862 C179.934566,31.8275862 179.852063,30.3524904 177.418208,30.0996169 C177.789474,29.9310345 179.480797,29.7203065 180.842105,28.9616858 C182.492176,28.0766284 183.358464,27.6130268 184.100996,26.4329502 C184.224751,26.2222222 184.472262,25.7586207 184.472262,25.3793103 C184.472262,24.9578544 183.605974,25.1264368 183.605974,24.5785441 C183.605974,24.3678161 183.605974,24.3256705 184.554765,24.3256705 C184.802276,24.3256705 185.421053,23.6934866 185.421053,23.2298851 C185.421053,22.9348659 184.183499,23.1034483 184.183499,22.7241379 C184.183499,22.51341 184.761024,22.7662835 185.214794,22.4291188 C185.503556,22.2183908 185.751067,21.5862069 185.751067,20.743295 C185.751067,19.8582375 185.421053,19.0574713 184.719772,19.0574713 L184.554765,19.0574713 C183.97724,19.0574713 183.72973,19.0574713 183.72973,18.5938697 C183.72973,18.0881226 184.472262,18.7203065 184.472262,17.4980843 C184.472262,16.48659 180.965861,14.2528736 177.046942,14.0842912 C174.860597,14 174.241821,14 172.83926,14 C170.817923,14 169.662873,14.2950192 169.002845,14.2950192 C167.806543,14.2950192 166.651494,15.0536398 165.537696,15.0536398 C165.372688,15.0536398 164.176387,14.7164751 163.928876,14.7164751 C163.433855,14.5057471 162.691323,14.1685824 161.907539,14.1685824 C161.247511,14.1685824 161,14.4636015 161,14.8007663 C161,15.348659 161.536273,16.0651341 161.866287,16.697318 C162.15505,17.3295019 162.196302,17.5823755 162.196302,18.3409962 L162.196302,19.605364 C162.196302,19.816092 162.320057,19.9425287 162.320057,20.0268199 C162.320057,20.4482759 163.145092,20.954023 163.145092,21.0383142 C163.145092,21.4176245 162.443812,21.4597701 162.443812,22.0498084 C162.443812,22.4291188 162.15505,23.0191571 162.15505,23.8199234 C162.15505,24.1570881 162.196302,24.5363985 162.196302,25.4636015 C162.196302,25.9272031 162.732575,26.8544061 162.732575,26.9808429 C162.732575,27.5287356 162.196302,27.7816092 162.196302,28.7509579 L162.196302,30.9425287 C162.196302,32.5862069 162.237553,33.6819923 162.691323,33.8505747 C163.062589,34.0191571 163.598862,34.7777778 163.598862,34.862069 C163.598862,35.0306513 163.475107,35.1570881 163.103841,35.1570881 L162.361309,35.1570881 C162.15505,35.1570881 162.072546,35.7471264 162.072546,36.0842912 C162.072546,36.2528736 162.072546,37.0536398 162.526316,37.0536398 C162.650071,37.0536398 162.691323,37.0957854 162.691323,37.1800766 C162.691323,37.4329502 162.196302,37.9808429 162.196302,38.6130268 C162.196302,39.1609195 162.485064,39.3295019 162.526316,39.9616858 C162.526316,40.467433 162.320057,40.6360153 162.320057,42.0689655 C162.320057,42.1954023 162.526316,42.4061303 162.567568,42.4061303 C162.650071,42.4061303 163.392603,42.0689655 163.763869,41.6475096 C163.928876,41.4789272 164.052632,41.394636 164.135135,41.394636 C164.176387,41.394636 164.217639,41.4367816 164.217639,41.4789272 C164.217639,41.5632184 163.722617,42.1111111 163.55761,42.4482759 C163.227596,43.0804598 162.196302,43.0804598 162.072546,43.8812261 C161.825036,45.6091954 161.412518,45.651341 161.412518,46.1992337 C161.412518,46.5363985 161.618777,46.789272 162.15505,46.789272 C163.145092,46.789272 163.598862,46.3256705 164.877667,46.3256705 Z M164.506401,42.2375479 C164.671408,42.2375479 164.795164,42.2796935 164.795164,42.4061303 C164.795164,42.7854406 164.382646,42.9961686 164.093883,42.9961686 C164.052632,42.9961686 164.01138,42.954023 164.01138,42.9118774 C164.01138,42.7854406 164.135135,42.2375479 164.506401,42.2375479 Z" id="Shape"></path>
                <path d="M195.543539,46.0392405 C196.276685,46.0392405 196.602528,45.9556962 197.254213,46.164557 C198.02809,46.4151899 198.598315,46.3734177 199.657303,46.3734177 C199.779494,46.3734177 200.594101,46.6658228 200.879213,46.6658228 C201.490169,46.6658228 202.467697,47 204.870787,47 C207.273876,47 209.717697,46.2063291 210.08427,45.9556962 C210.695225,45.5379747 211.876404,45.4544304 212.120787,44.8696203 C212.161517,44.7025316 212.446629,44.3683544 212.56882,44.3683544 C212.731742,44.3683544 212.935393,44.4101266 213.016854,44.4101266 C213.587079,44.4101266 216.275281,42.6139241 216.641854,41.9873418 C216.723315,41.8202532 216.641854,41.5278481 216.926966,41.1518987 C217.212079,40.8594937 217.619382,40.9012658 217.782303,40.1493671 C217.985955,39.3556962 218.474719,39.8151899 218.474719,39.2721519 C218.474719,38.7291139 218.067416,38.9379747 218.067416,37.9772152 C218.067416,37.8518987 218.108146,37.8101266 218.189607,37.8101266 C218.311798,37.8101266 218.59691,37.9772152 218.841292,37.9772152 C219.044944,37.9772152 219.289326,37.8518987 219.452247,37.4759494 C220.226124,35.8886076 220.511236,34.8025316 220.511236,34.2177215 C220.511236,34.0088608 220.266854,33.8 220.266854,33.5493671 C220.266854,33.2151899 220.877809,33.1734177 220.877809,32.2126582 C220.877809,30.9177215 220.348315,29.6227848 219.981742,29.6227848 C219.73736,29.6227848 219.574438,29.664557 219.452247,29.664557 C219.330056,29.664557 219.248596,29.6227848 219.248596,29.4974684 C219.248596,29.0797468 221,29.2050633 221,28.578481 C221,27.2 221,27.1582278 220.470506,26.9493671 C220.470506,26.9493671 220.429775,26.9493671 219.941011,26.7405063 C219.615169,26.6151899 219.574438,26.5734177 219.574438,26.4063291 C219.574438,25.9050633 219.615169,25.8632911 219.73736,25.8632911 C220.063202,25.8632911 220.144663,25.9886076 220.592697,25.9886076 C220.633427,25.9886076 220.714888,25.7379747 220.714888,25.6962025 C220.714888,25.4037975 219.574438,25.1113924 219.452247,24.5683544 C219.452247,24.4848101 219.533708,24.4848101 219.615169,24.4848101 C219.859551,24.4848101 220.226124,24.6101266 220.307584,24.6101266 C220.348315,24.6101266 220.592697,24.3177215 220.592697,24.0670886 C220.592697,23.1481013 219.330056,21.1012658 218.800562,21.1012658 C218.719101,21.1012658 218.230337,21.435443 217.782303,21.435443 C217.700843,21.435443 217.456461,21.3518987 217.456461,21.2683544 C217.456461,21.0594937 218.026685,20.3075949 218.026685,19.764557 C218.026685,18.8873418 215.745787,16.9658228 214.890449,16.9658228 C214.442416,16.9658228 213.953652,17.0911392 213.627809,17.0911392 C213.383427,17.0911392 213.139045,16.9658228 213.139045,16.9240506 C213.139045,16.756962 213.668539,16.5481013 213.668539,16.2974684 C213.668539,15.6291139 211.672753,14.543038 210.735955,14.543038 C210.573034,14.543038 210.491573,14.7101266 210.206461,14.7101266 C209.595506,14.7101266 208.536517,14 206.011236,14 C202.345506,14 202.386236,14.2924051 200.553371,14.2924051 C200.105337,14.2924051 199.698034,14.4594937 199.29073,14.4594937 C198.150281,14.4594937 197.091292,15.1278481 196.602528,15.1278481 C195.869382,15.1278481 195.380618,14.9189873 194.647472,14.6683544 C194.158708,14.5012658 193.669944,14.2506329 192.896067,14.2506329 C192.244382,14.2506329 192,14.543038 192,14.8772152 C192,15.4202532 192.529494,16.1303797 192.855337,16.756962 C193.140449,17.3835443 193.18118,17.6341772 193.18118,18.3860759 L193.18118,19.6392405 C193.18118,19.8481013 193.303371,19.9734177 193.303371,20.056962 C193.303371,20.4746835 194.117978,20.9759494 194.117978,21.0594937 C194.117978,21.435443 193.425562,21.4772152 193.425562,22.0620253 C193.425562,22.4379747 193.140449,23.0227848 193.140449,23.8164557 C193.140449,24.1506329 193.18118,24.5265823 193.18118,25.4455696 C193.18118,25.9050633 193.710674,26.8240506 193.710674,26.9493671 C193.710674,27.4924051 193.18118,27.743038 193.18118,28.7037975 L193.18118,30.8759494 C193.18118,32.5050633 193.22191,33.5911392 193.669944,33.7582278 C194.036517,33.9253165 194.566011,34.6772152 194.566011,34.7607595 C194.566011,34.9278481 194.44382,35.0531646 194.077247,35.0531646 L193.344101,35.0531646 C193.140449,35.0531646 193.058989,35.6379747 193.058989,35.9721519 C193.058989,36.1392405 193.058989,36.9329114 193.507022,36.9329114 C193.629213,36.9329114 193.669944,36.9746835 193.669944,37.0582278 C193.669944,37.3088608 193.18118,37.8518987 193.18118,38.478481 C193.18118,39.021519 193.466292,39.1886076 193.507022,39.8151899 C193.507022,40.3164557 193.303371,40.4835443 193.303371,41.9037975 C193.303371,42.0291139 193.507022,42.2379747 193.547753,42.2379747 C193.629213,42.2379747 194.36236,41.9037975 194.728933,41.4860759 C194.728933,41.5696203 194.688202,41.9455696 194.525281,42.2797468 C194.199438,42.9063291 193.18118,42.9063291 193.058989,43.7 C192.814607,45.4126582 192.407303,45.3708861 192.407303,45.9139241 C192.407303,46.2481013 192.610955,46.4987342 193.140449,46.4987342 C194.117978,46.4987342 194.280899,46.0392405 195.543539,46.0392405 Z M200.186798,16.756962 C200.553371,16.2974684 200.675562,16.2139241 201.69382,16.2139241 C202.386236,16.2139241 202.956461,15.8379747 203.241573,15.8379747 C203.404494,15.8379747 203.526685,16.1721519 203.811798,16.1721519 C204.13764,16.1721519 204.626404,15.921519 205.115169,15.921519 C205.685393,15.921519 206.907303,16.2556962 207.884831,16.464557 C208.780899,16.6734177 210.287921,17.0911392 210.817416,18.1772152 C210.980337,18.4696203 212.242978,19.764557 212.283708,20.4746835 C212.405899,22.0202532 212.976124,21.2683544 213.342697,21.9367089 C214.157303,23.2316456 214.157303,26.6151899 214.768258,26.656962 C215.094101,26.7405063 215.216292,26.7822785 215.216292,26.9493671 C215.216292,27.5759494 214.646067,27.743038 214.605337,28.1189873 C214.564607,28.4949367 214.564607,28.6202532 214.564607,29.664557 C214.564607,30.2075949 214.523876,31.7531646 214.523876,32.0873418 C214.523876,32.421519 214.808989,32.5886076 214.808989,32.6721519 C214.808989,33.0063291 214.483146,33.0481013 214.483146,33.4658228 C214.483146,35.0113924 213.424157,36.9329114 213.261236,37.4759494 C213.220506,37.5177215 213.220506,37.6012658 213.220506,37.6848101 C213.220506,38.1025316 213.668539,38.1860759 213.668539,38.3531646 C213.668539,38.5202532 213.301966,38.6873418 213.179775,38.6873418 C213.098315,38.6873418 213.016854,38.6455696 212.976124,38.6455696 C212.650281,38.6455696 211.591292,40.4835443 211.591292,40.4 C211.591292,40.5253165 211.509831,40.9848101 211.509831,41.4860759 C211.509831,42.1962025 210.532303,42.1126582 210.247191,42.6974684 C209.962079,43.2822785 209.962079,43.5329114 209.473315,43.5329114 C209.351124,43.5329114 209.310393,43.4493671 209.147472,43.4493671 C208.740169,43.4493671 208.210674,43.7 207.518258,44.1177215 C206.825843,44.4936709 206.174157,44.535443 205.481742,44.6607595 C205.074438,44.7443038 204.870787,45.1620253 204.422753,45.1620253 C203.323034,45.1620253 204.09691,44.5772152 202.549157,44.5772152 C201.327247,44.5772152 200.023876,44.243038 200.023876,43.4075949 C200.023876,42.7810127 200.105337,42.0291139 200.105337,41.3607595 C200.105337,40.4 199.168539,40.9848101 199.168539,40.5253165 C199.168539,40.2329114 200.023876,39.7734177 200.023876,39.4810127 C200.023876,39.2721519 199.738764,39.1468354 199.657303,39.1468354 C199.372191,39.1468354 198.353933,40.1075949 197.783708,40.1075949 C197.742978,40.1075949 197.702247,40.1075949 197.702247,39.9822785 C197.702247,39.7316456 198.394663,39.564557 198.516854,39.021519 C198.679775,38.1025316 199.901685,38.4367089 199.901685,36.0974684 C199.901685,34.5518987 199.942416,34.2177215 199.942416,33.8417722 C199.942416,33.1734177 199.494382,32.8392405 199.494382,32.6303797 C199.494382,32.6303797 200.023876,29.664557 200.023876,28.7037975 C200.023876,28.5367089 199.860955,28.4531646 199.738764,28.4531646 C199.494382,28.4531646 199.25,28.578481 199.005618,28.578481 C198.801966,28.578481 198.679775,28.4949367 198.679775,28.3696203 C198.679775,28.3278481 199.738764,27.8683544 199.738764,27.2417722 C199.698034,26.5734177 199.494382,26.4481013 199.494382,26.2810127 C199.494382,25.9050633 200.105337,25.6544304 200.105337,25.1113924 C200.105337,22.6050633 199.698034,22.1873418 199.412921,22.1873418 C199.331461,22.1873418 199.25,22.2708861 199.168539,22.2708861 C199.087079,22.2708861 199.046348,22.2291139 199.046348,22.0202532 C199.046348,21.6443038 199.942416,20.6417722 199.942416,19.8898734 C199.942416,18.7620253 199.657303,18.8873418 199.657303,17.8848101 C199.657303,17.2164557 199.738764,17.2164557 200.186798,16.756962 Z M199.127809,23.356962 C199.29073,23.356962 199.372191,23.4405063 199.372191,23.6075949 C199.372191,23.6911392 199.20927,24.0253165 198.924157,24.0253165 C198.720506,24.0253165 198.639045,23.9 198.639045,23.7329114 C198.639045,23.5658228 198.924157,23.356962 199.127809,23.356962 Z M218.963483,35.0949367 C218.963483,34.9696203 219.085674,34.9696203 219.167135,34.9696203 C219.330056,34.9696203 219.574438,35.0949367 219.574438,35.3037975 C219.574438,35.5962025 219.492978,35.6379747 219.330056,35.6379747 C219.167135,35.6379747 218.963483,35.4291139 218.963483,35.0949367 Z M211.265449,16.0468354 C211.509831,16.0468354 211.672753,16.1303797 211.672753,16.3810127 C211.672753,16.6734177 211.509831,16.8822785 211.30618,16.8822785 C211.061798,16.8822785 210.817416,16.5898734 210.817416,16.3810127 C210.817416,16.1721519 211.021067,16.0468354 211.265449,16.0468354 Z M194.240169,44.2012658 C194.40309,44.2012658 194.525281,44.243038 194.525281,44.3683544 C194.525281,44.7443038 194.117978,44.9531646 193.832865,44.9531646 C193.792135,44.9531646 193.751404,44.9113924 193.751404,44.8696203 C193.751404,44.7443038 193.873596,44.2012658 194.240169,44.2012658 Z" id="Shape"></path>
                <path d="M223.583942,41.4481888 C223.583942,41.9380938 224.284672,41.6931413 224.576642,42.2442844 C224.810219,42.8566656 225.10219,42.6729513 225.510949,42.8566656 C225.686131,42.9179038 225.80292,42.9179038 225.919708,42.9179038 C225.978102,42.9179038 226.036496,42.9179038 226.094891,42.9791419 C226.153285,43.04038 226.153285,43.1016181 226.153285,43.1628563 C226.153285,43.3465706 226.094891,43.530285 226.094891,43.8977138 C226.153285,44.1426663 226.620438,45 227.029197,45 C227.437956,45 227.788321,44.3263806 228.021898,44.0814281 C228.313869,43.8977138 228.430657,43.5915231 228.489051,43.3465706 C228.605839,43.04038 227.788321,42.9791419 227.788321,42.9179038 C227.788321,42.550475 228.781022,42.2442844 228.781022,42.1830463 C228.781022,42.1218082 228.89781,42.1218082 229.072993,42.1218082 C229.248175,42.1218082 229.540146,42.1218082 229.715328,41.9993319 C230.124088,41.6931413 231,41.2032363 231,40.6520932 C231,40.2234263 230.124088,39.6722832 230.065693,39.6722832 C229.948905,39.6110451 229.364964,38.9374257 229.248175,38.6924732 C229.131387,38.3862826 228.722628,38.2638063 228.19708,38.2638063 C228.021898,38.2638063 228.021898,37.9576157 228.021898,37.7739013 C228.021898,37.5901869 228.021898,37.4677107 228.021898,37.4677107 C227.963504,37.100282 227.379562,36.3654245 227.145985,36.3654245 C226.970803,36.3654245 226.678832,36.610377 226.386861,36.9165676 C226.270073,36.9778057 226.211679,37.0390438 226.211679,37.2227582 C226.211679,37.5289488 226.562044,38.1413301 226.562044,38.1413301 C226.562044,38.1413301 226.036496,37.8351394 225.80292,37.7739013 C225.627737,37.7126632 225.160584,38.3250444 225.043796,38.6312351 C224.868613,38.8761876 224.693431,39.1211401 224.284672,39.3660926 C223.875912,39.6722832 223,39.9172357 223,40.5296169 C223,41.08076 223.583942,40.9582838 223.583942,41.4481888 Z M223.233577,2.31702731 C223.116788,3.2968373 223.233577,4.76655228 223.467153,6.48121976 C223.70073,8.19588725 223.642336,9.78807848 223.642336,11.1965553 C223.642336,12.6050322 223.642336,13.5236041 223.992701,14.8096047 C224.343066,16.0956053 223.992701,16.952939 224.051095,17.7490347 C224.109489,18.5451303 224.576642,18.4838921 224.927007,19.0350353 C225.277372,19.5861784 224.167883,20.6884646 224.167883,21.362084 C224.167883,22.0357034 224.459854,22.6480846 224.459854,23.7503708 C224.459854,24.8526571 225.160584,27.2409439 224.927007,28.2207539 C224.693431,29.2005639 225.10219,30.0578977 225.452555,31.9562795 C225.744526,33.4872326 226.562044,34.160852 226.970803,34.160852 C227.379562,34.160852 227.905109,34.160852 228.080292,32.6298989 C228.255474,31.0989458 229.014599,30.8539933 229.014599,30.5478026 C229.014599,30.241612 228.138686,30.1803739 228.255474,30.1191358 C228.372263,30.0578977 228.19708,29.3230402 228.605839,28.771897 C229.014599,28.2207539 229.072993,27.1797058 229.189781,25.6487527 C229.306569,24.1177996 229.481752,23.7503708 229.306569,22.8930371 C229.131387,22.0357034 229.131387,21.1783696 229.423358,19.9536071 C229.715328,18.7288446 229.715328,19.4637021 229.773723,17.2591297 C229.832117,15.0545572 229.59854,14.8096047 229.832117,14.0747472 C230.065693,13.3398897 230.124088,11.502746 230.124088,10.8291266 C230.124088,10.1555072 230.124088,9.97179285 229.832117,8.99198286 C229.540146,8.01217287 228.138686,8.3183635 228.547445,7.88969663 C228.956204,7.46102975 230.240876,7.583506 230.240876,6.90988664 C230.240876,6.23626727 229.306569,6.17502914 229.189781,5.8076004 C228.956204,5.01150478 229.715328,5.37893353 230.124088,4.52159978 C230.532847,3.66426604 230.532847,2.99064668 230.532847,1.45969357 C230.532847,-0.0712595439 229.832117,-0.193735793 229.423358,0.173692954 C229.014599,0.5411217 225.978102,0.602359824 225.043796,1.15350294 C224.109489,1.70464606 223.350365,1.33721732 223.233577,2.31702731 Z" id="Shape"></path>
            </g>
        </g>
    </g>
</svg>